<?xml version="1.0" encoding="UTF-8"?><svg xmlns="http://www.w3.org/2000/svg" xmlns:xlink="http://www.w3.org/1999/xlink" data-name="Layer 3" height="349.2" preserveAspectRatio="xMidYMid meet" version="1.0" viewBox="0.0 0.0 468.9 349.2" width="468.9" zoomAndPan="magnify"><g id="change1_1"><path d="M468.93,227.33c0,67.3-105,121.87-234.46,121.87S0,294.63,0,227.33,105,105.46,234.47,105.46,468.93,160,468.93,227.33Z" fill="#766daa"/></g><g id="change2_1"><path d="M452.27,226.33c0,62.52-97.51,113.21-217.8,113.21S16.66,288.85,16.66,226.33s97.51-113.21,217.81-113.21S452.27,163.8,452.27,226.33Z" fill="#fff"/></g><g id="change1_2"><path d="M413.66,227.33c0,51.44-80.23,93.14-179.19,93.14s-179.2-41.7-179.2-93.14,80.23-93.14,179.2-93.14S413.66,175.89,413.66,227.33Z" fill="#766daa"/></g><g id="change2_2"><path d="M402.54,222.19c0,48.25-75.25,87.36-168.07,87.36S66.39,270.44,66.39,222.19s75.25-87.36,168.08-87.36S402.54,173.94,402.54,222.19Z" fill="#fff"/></g><g id="change3_1"><path d="M393.78,218.11c-53.64,71.4-161.43,68.59-161.43,68.59s-107.8,2.81-161.44-68.59C22.26,153.35,30.73,85.75,30.73,85.75H434S442.43,153.35,393.78,218.11Z" fill="#b2aad3"/></g><g id="change1_3"><path d="M434,85.75c0,47.36-90.27,85.75-201.61,85.75S30.73,133.11,30.73,85.75,121,0,232.35,0,434,38.39,434,85.75Z" fill="#766daa"/></g><g id="change4_1"><path d="M416,275.57a24.7,24.7,0,0,0-7.13-3.66,24.91,24.91,0,0,1,8.92.95,2.11,2.11,0,0,0,1.26.11c.72-.24.91-1.16.94-1.92.06-1.41-.27-3.12-1.59-3.59-.84-.3-1.85,0-2.63-.41-1.14-.65-.93-2.3-1.09-3.61a5,5,0,0,0-1.8-3.27,1.72,1.72,0,0,0-.89-.45c-.79-.11-1.46.62-2.25.71-1,.11-1.77-.76-2.44-1.51a1.79,1.79,0,0,0,.89-1.09c.15-.56,0-1.17.1-1.74.25-1.41,1.9-2,3.28-2.38a2.25,2.25,0,0,0,.86-.36c.66-.54.5-1.6.15-2.38a.93.93,0,0,0-.05-.1c1.44-.92,1.51-3.19,3-4.08,1.1-.67,2.69-.37,3.54-1.32,1.26-1.4-.45-3.79.43-5.45.19-.36.49-.65.71-1a3.94,3.94,0,0,0,.22-3.07c-.09-.27-.26-.57-.54-.61a.87.87,0,0,0-.47.1c-3.33,1.41-6.39,3.4-9.64,5,0-.08,0-.16,0-.24l-.12-.51c1.34-1.16,2.76-2.24,4.19-3.3s3.68-2.22,4.93-3.59-.31-2-1.11-3.19a4.62,4.62,0,0,1-.62-1.94,9,9,0,0,0-1-3.26,3.25,3.25,0,0,0-2.78-1.72c-.87.05-1.71.55-2.56.38-1.16-.23-1.86-1.61-3-1.72-1.65-.15-3,2.31-4.48,1.63-.44-.2-.75-.64-1.22-.76a1.34,1.34,0,0,0-1.47,1.13,4.65,4.65,0,0,0,.22,2,18.5,18.5,0,0,1,.43,6.42c-.17-.12-.35-.22-.53-.33a14.83,14.83,0,0,0-1.26-4.89,5.09,5.09,0,0,0-1.83-2.33,2.26,2.26,0,0,0-2.77.24c-.65.74-.66,2-1.54,2.47a10.12,10.12,0,0,1-1.08.29,2,2,0,0,0-1.16,1.54,5.86,5.86,0,0,0,.06,2c-.82.16-1.76-.2-2.45.27a1.67,1.67,0,0,0-.35,2.06,7,7,0,0,0,1.46,1.72,10.85,10.85,0,0,1,1.55,2c-.05.15-.09.3-.15.45a8.73,8.73,0,0,1-3.41,3.91,6.76,6.76,0,0,0-.09-1.34,22.41,22.41,0,0,0-1.07-5,5,5,0,0,1-.4-1.33,8.68,8.68,0,0,1,0-1,3.47,3.47,0,0,0-1.19-2.62c-.62.05-1,.7-1.22,1.27L380.39,239c1.13-3.22,2.26-6.73,1.2-10a2.38,2.38,0,0,0-.39-.78l2.27-1.24a14,14,0,0,1,3.69-1.6A4.85,4.85,0,0,1,391,226c.72.51,1.63,1.31,2.31.76a1.66,1.66,0,0,0,.4-.61,5.87,5.87,0,0,1,1.47-2.23c.77-.62,1.85-.81,2.54-1.53,1.18-1.24.72-3.47,1.93-4.68.9-.9,2.53-1,3.13-2.1.89-1.66-1.33-3.58-.87-5.4.1-.4.33-.75.46-1.14a4,4,0,0,0-.51-3,.82.82,0,0,0-.67-.47.91.91,0,0,0-.43.21c-3.47,2.58-6.37,5.87-9.85,8.45a48.77,48.77,0,0,1,4.62-6.21c1.19-1.44,3.05-3,3.94-4.64s-.77-1.91-1.82-2.84a4.77,4.77,0,0,1-1.06-1.74,8.79,8.79,0,0,0-1.73-2.94,3.25,3.25,0,0,0-3.11-1c-.83.24-1.53.93-2.4,1-1.18.05-2.18-1.14-3.35-1-1.64.24-2.34,2.94-4,2.63-.47-.09-.88-.45-1.37-.45-.69,0-1.18.76-1.17,1.45a4.48,4.48,0,0,0,.71,1.93,18.62,18.62,0,0,1,2,9.69,14.66,14.66,0,0,0-3.1-8.19,5,5,0,0,0-2.33-1.84,2.24,2.24,0,0,0-2.62.89c-.47.87-.17,2.13-.93,2.76a10.25,10.25,0,0,1-1,.54,2,2,0,0,0-.76,1.76,5.71,5.71,0,0,0,.52,1.93c-.75.35-1.76.22-2.31.84a1.68,1.68,0,0,0,.14,2.08,6.81,6.81,0,0,0,1.83,1.34,11.82,11.82,0,0,1,5.38,11.61v0l0,0c-.78-.5-1.79-.05-2.6.4l-2.19,1.23a1.23,1.23,0,0,1-.66.21c-.6,0-.77-.88-1.24-1.26a1.36,1.36,0,0,0-1.87.52,3.6,3.6,0,0,0-.32,2.13c-1.26-.26-2.9-.35-3.5.79s.31,2.32,1,3.31a15.84,15.84,0,0,1,2.44,5.13l-.82.72a31.27,31.27,0,0,0-2.4-3.91c-.77-1.06-2-2.2-3.23-1.66-.47.21-.81.64-1.28.83a5.57,5.57,0,0,1-2.19,0c.42-.72.89-1.42,1.35-2.1a21.06,21.06,0,0,1,3-3.77,7.08,7.08,0,0,1,4.26-2c1.14-.08,2.39.18,3.34-.44a2.13,2.13,0,0,0,.29-3.17,1.64,1.64,0,0,0,.82-1.48,4.7,4.7,0,0,0-.44-1.71,22.09,22.09,0,0,0-2.21-4.56,5.54,5.54,0,0,1-.7-1.19c-.11-.33-.14-.67-.22-1a3.45,3.45,0,0,0-1.77-2.26c-.59.19-.78.91-.88,1.52l-1.41,8.33c.33-3.39.61-7.07-1.18-10a1.79,1.79,0,0,0-1-.88c-.59-.16-1.2.23-1.8.14-1.49-.21-1.42-2.77-2.84-3.25-.87-.31-1.75.37-2.43,1l-1.85,1.71a1.27,1.27,0,0,1-.58.36c-.6.09-1-.68-1.51-.93a1.34,1.34,0,0,0-1.69.94,3.62,3.62,0,0,0,.19,2.15c-1.29,0-2.9.33-3.22,1.58s.85,2.19,1.78,3a16,16,0,0,1,5,7.93,31,31,0,0,0-5.29-5.86c-1-.85-2.5-1.66-3.54-.85-.4.31-.63.8-1.05,1.1-.87.62-2.26.17-3,.93s-.24,2,.49,2.8,1.71,1.36,2,2.37c-.71.53-1.49,1.24-1.35,2.11.23,1.37,2.52,1.67,2.6,3.06a1,1,0,0,1-.55.81,1.7,1.7,0,0,0,1.82,1.25,8.44,8.44,0,0,0,2.32-.68,8.16,8.16,0,0,1,8,1.65,5.47,5.47,0,0,1,1.16,1.42,4.64,4.64,0,0,1,.41,1.13,46,46,0,0,1-8.49,16.79c-9.71,12.06-60.9,45.24-60.9,45.24l1.23,2.19.55,2s36.86-12.38,50.84-19.31A25.28,25.28,0,0,1,352.3,278a2.25,2.25,0,0,0,1.52,1.25,5.27,5.27,0,0,0,3.2-.74l.27,0c.91,2.14,2.89,3.63,4.86,4.87a3.21,3.21,0,0,0,1.14.53,2.28,2.28,0,0,0,2-.85,1,1,0,0,0,.08-.11q.24.44.45.9a5.33,5.33,0,0,1,.55,2.53,4.21,4.21,0,0,1-2.15,3.11,8.86,8.86,0,0,1-3.76,1,2.18,2.18,0,0,0-1.56.55c-.13.17-.21.37-.33.54-.64.88-2.12.55-2.92,1.28s-.26,2.41.82,2.91a5.52,5.52,0,0,0,3.5,0c.33,2.36,1.95,4.32,3.61,6a3.19,3.19,0,0,0,1,.77,2.27,2.27,0,0,0,2.18-.34,6.59,6.59,0,0,0,1.53-1.71A13.73,13.73,0,0,0,371,295.4a9.31,9.31,0,0,1-.25,4.45c-.5,1.59-1.4,3.36-.55,4.79s2.76,1.48,4.38,1.42l3.44-.14a26,26,0,0,0,4.5-.46,14.77,14.77,0,0,1,3.06-.59,5.36,5.36,0,0,0,1.92-.1,2.36,2.36,0,0,0,1.16-2.84,6.81,6.81,0,0,0-1.88-2.76l-6.2-6.51c2,1.94,4.85,2.78,7.56,3.52a4.59,4.59,0,0,0,1.9.24,1.59,1.59,0,0,0,1.37-1.18,1.91,1.91,0,0,0-1-1.72,8.66,8.66,0,0,1-1.73-1.18c-.95-1.07-.7-2.79-1.49-4-.56-.86-1.63-1.41-1.86-2.41a5.46,5.46,0,0,1,.31-2.24,4.12,4.12,0,0,0-.46-2.69,2.43,2.43,0,0,0,.9-.36,2.37,2.37,0,0,0,.46-3,7,7,0,0,0-2.48-2.24l-7.56-4.87c2.44,1.41,5.37,1.57,8.18,1.65a4.55,4.55,0,0,0,1.91-.21,1.83,1.83,0,0,0,.88-.81l.15.12a8.08,8.08,0,0,1,.93,11.26c-.42.5-.91,1.26-.45,1.73a2.75,2.75,0,0,0,.62.37c1.12.75-.09,2.69.65,3.82.59.9,1.94.69,3,1s2.13,1.39,3.26,1.06c.82-.23,1.35-1.16,2.2-1.26s1.56.64,2.37.55a1.66,1.66,0,0,0,1.3-1.35,4.75,4.75,0,0,0-.13-2c-.45-2.25-.91-4.49-1.36-6.74a15.81,15.81,0,0,1,3.58,6.7c.28,1.13.71,2.56,1.87,2.68.82.09,1.51-.59,2.3-.85,1.14-.38,2.36.13,3.52.42s2.66.22,3.24-.83c.28-.51.26-1.14.5-1.67.58-1.31,2.32-1.52,3.75-1.54a2.37,2.37,0,0,0,.92-.15c.77-.37.86-1.44.71-2.28A11.25,11.25,0,0,0,416,275.57Zm-38-17.55a9.32,9.32,0,0,1-1.21,1.3l-1.25.6c-1.72.82-3.41,1.58-4.94,2.25l-.63.11a22.88,22.88,0,0,1-4.22.11,47.08,47.08,0,0,0,6-11.19c.58-.61,1.21-1.19,1.82-1.74a30.66,30.66,0,0,1,2.56-2.15,9.06,9.06,0,0,1,2,.73,8.05,8.05,0,0,1,4.28,8.32c-1.28.73-2.64,1.46-4,2.15A4.83,4.83,0,0,0,378.07,258Zm-23,16a1.06,1.06,0,0,0-.1.3c-1-.29-1.51-.44-1.51-.44a38.43,38.43,0,0,1,6.37-2.61,8.82,8.82,0,0,1-3.37,1.85A2.12,2.12,0,0,0,355.08,274Zm5.91-28.4.26,0-.28,0Zm7.63-7c.05.46.09.93.11,1.4-.14-.36-.3-.71-.45-1.06Zm-11-2.57a4.16,4.16,0,0,1,.9,2c-.81.34-1.74.85-1.81,1.73-.1,1.38,2.06,2.22,1.81,3.58a1,1,0,0,1-.73.67,1.09,1.09,0,0,0,.07.51c-2.42,1.8-4.1,3-4.1,3A53.1,53.1,0,0,0,357.62,236.05Zm10.73,12.12a7.32,7.32,0,0,1,.69.87,5.18,5.18,0,0,1,.79,1.66,4.78,4.78,0,0,1,.14,1.19,47,47,0,0,1-7.11,9.71,65,65,0,0,0-17.14-3C352.34,252.84,360.77,249.78,368.35,248.17Zm-67.54,43c10.67-6.94,25.81-17.05,33.13-23.19,6.32-5.3,15.44-6.17,22.63-5.82a13.82,13.82,0,0,1,3,2.57c-.57.49-1.16,1-1.78,1.46C349.19,272.8,318.53,284.65,300.81,291.19ZM367,279.39a10.66,10.66,0,0,0,.73-4,9.44,9.44,0,0,1,.8,4.38c0,.15,0,.3,0,.45C368,280,367.54,279.67,367,279.39Zm17.13,1.81.67-.14a10.37,10.37,0,0,1-4.91,2c.48-.18.95-.37,1.4-.59A14.77,14.77,0,0,1,384.17,281.2Zm18.41-17.38c-1.79,2.48-5,3.57-8,3.76s-6.09-.38-9.15-.51c-.39,0-.78,0-1.18,0l-1.16-.28a6.58,6.58,0,0,0-1.23-2c-.75-.71-1.92-1-2.38-1.91a5.8,5.8,0,0,1-.23-2.25v0c.85-.51,1.65-1,2.43-1.52-.23.55-.38,1.21.09,1.51a3.71,3.71,0,0,0,.69.22c1.26.46.55,2.63,1.53,3.55.78.74,2.05.21,3.12.27s2.4.84,3.42.26c.74-.42,1-1.45,1.85-1.74s1.66.26,2.43,0a1.68,1.68,0,0,0,.94-1.62,4.84,4.84,0,0,0-.59-1.9q-1.42-3.06-2.86-6.12l.07,0a15.78,15.78,0,0,1,4.94,5.58c.54,1,1.29,2.32,2.45,2.17.82-.11,1.33-.93,2-1.37a4.43,4.43,0,0,1,2.56-.45A11.64,11.64,0,0,1,402.58,263.82Z" fill="#7d921c"/></g><g id="change3_2"><path d="M94.92,37.17A114.15,114.15,0,0,0,71.38,48.63a89.22,89.22,0,0,0-10.52,7.84,60.15,60.15,0,0,0-9,9.57,40,40,0,0,0-6,11.57A30.28,30.28,0,0,0,44.8,90.55c.13.64.33,1.77.65,3.13l.65,2.16c.23.77.59,1.53.88,2.31a23.26,23.26,0,0,0,1,2.27l.54,1.07a.42.42,0,0,0,.07.11,2.45,2.45,0,0,1,.16.24,22.69,22.69,0,0,0,1.38,2.08c.76,1-.2,1.32-.37,1.35l-.87.09a2.18,2.18,0,0,1-1.55-.42l-.67-1.06-.34-.54c-.06-.09-.11-.18-.16-.27l-.08-.14,0-.07,0,0-.09-.18a36.61,36.61,0,0,1-4.11-14.76,33.48,33.48,0,0,1,3-15.1,48.08,48.08,0,0,1,8.49-12.7A75.72,75.72,0,0,1,64.64,50,104.11,104.11,0,0,1,77.3,42a115.58,115.58,0,0,1,13.48-6.22c4.14-1.57,8.83-3.17,13.93-4.78s10.62-3.14,16.33-4.53c11.42-2.85,23.62-5.14,34.87-6.83C178.4,16.22,197,15,198.05,14.86a479.75,479.75,0,0,1,63-1A419.34,419.34,0,0,1,328.4,22a277.36,277.36,0,0,1,29,7.66c4.76,1.57,9.49,3.24,14.15,5.13,2.33.95,4.67,1.88,6.95,2.94l4,1.79a7.13,7.13,0,0,1,3,2.43,1.15,1.15,0,0,1,.24.58c0,.53-.49.71-.88.88a2.3,2.3,0,0,1-1.53.09A5.42,5.42,0,0,1,382,43c-.38-.23-.7-.43-1.15-.68-2.38-1.07-4.73-2.21-7.15-3.24s-4.83-2.07-7.3-3a254.45,254.45,0,0,0-30.45-9.54,378.36,378.36,0,0,0-61.52-9.11c-5.32-.4-10.87-.63-15.94-.85-3.16-.12-11.3-.48-22.28-.4-5.48,0-11.68.17-18.31.42s-13.69.71-20.91,1.27c-14.45,1.13-29.54,2.74-43,4.84s-25.44,4.65-33.71,6.77C111.61,31.67,103.18,34.2,94.92,37.17Zm293.93,8.37a3.91,3.91,0,0,0,1.82,2c.81.46,1.66.87,2.47,1.33a12.87,12.87,0,0,0,2.1,1,24.59,24.59,0,0,0,2.47.54.78.78,0,0,0,.57-.44c.44-1-.7-2.41-1.44-3a20.16,20.16,0,0,0-2-1.24,15.17,15.17,0,0,0-2.14-1.14C390.83,44.05,388.11,43.65,388.85,45.54Zm12,7.5a1.07,1.07,0,0,0,.49.93,3.07,3.07,0,0,0,3.81.43.93.93,0,0,0,.44-.79,3.66,3.66,0,0,0-.1-1A1.27,1.27,0,0,0,405,52a8,8,0,0,0-1.61-.79,1.9,1.9,0,0,0-2.22.69A10.14,10.14,0,0,0,400.88,53Z" fill="#b2aad3"/></g><g id="change5_1"><ellipse cx="232.35" cy="105.71" fill="#ffa64d" rx="184.14" ry="60.85"/></g><g id="change2_3"><path d="M177.34,111c-.59,1.35-2.17,1.9-3.6,2.26-7.89,2-19.13,5.89-26.69.7-3.63-2.5-3.56-5.89-8.34-7.29-5.84-1.71-12.4-1.42-18.38-3a83.9,83.9,0,0,1-17.54-6.95c-6-3.2-12.38-8.83-11-15.5,1.11-5.29,7.88-8.48,12.66-6-2.67,1.9-3.15,5.95-1.67,8.88s4.47,4.84,7.58,5.9c10.63,3.62,22.11-1.28,33.33-1.74,5.58-.24,11.14.65,16.7,1.17a131.9,131.9,0,0,0,38.19-2c2.42-.49,4.92-1.08,6.87-2.59s3.22-4.19,2.36-6.51c-1.38-3.74-6.88-4.14-9-7.49,6,.57,12,2.68,16.12,7.08s5.63,11.43,2.6,16.6c-2.72,4.65-8.35,6.85-13.71,7.31s-10.74-.5-16.12-.53c-4.37,0-9.9,1.71-10.16,6.06C177.43,108.56,177.82,109.85,177.34,111Zm42.91-56c-2.71.61-7.24,3.77-9.81,3.57l18.18,1.38c2.76.21,5.6.45,8,1.74s4.38,4,4,6.69c-.37,2.42-2.4,4.22-3.29,6.5-1.52,3.9.74,8.48,4.19,10.86s7.77,3,11.94,3.4c16.19,1.44,32.84-.39,48.49,4,3.73,1,7.37,2.44,11.17,3.21a70,70,0,0,0,13.88,1c5.72,0,11.47,0,17.09-1,6.4-1.18,13.41-3.61,19-.36,6.95,4,7,14.8,2,21.1s-13.06,9.11-20.78,11.28c9.31.08,19-.91,26.92-5.85S384.65,107.72,382,98.79c-1.42-4.81-4.88-8.7-8.23-12.43a23,23,0,0,0-4.72-4.31A16.77,16.77,0,0,0,362.39,80a18.58,18.58,0,0,0-9.28.82,55.68,55.68,0,0,0-5.3,2.9c-6.95,3.75-15.35,3.76-23.14,2.45s-15.36-3.82-23.2-4.84c-13.56-1.76-27.51,1-40.9-1.74a14.66,14.66,0,0,1-6.94-3c-1.91-1.69-3-4.54-1.94-6.87.82-1.83,2.74-3,3.5-4.85,1.61-3.92-3-7.81-7.19-8.23-3.74-.37-7.65.91-11.3.46-2.49-.31-4-1.51-6.42-2.18A20.51,20.51,0,0,0,220.25,55ZM183,147.67c10.38.93,20.81,1,31.23,1.06,15.71.1,31.92.11,46.4-6,4.19-1.76,8.16-4,12.4-5.68,8.54-3.36,17.83-4.2,26.87-5.86s18.28-4.37,25-10.62c-14.37,8-32.05,4.44-48.33,2.09-5.29-.76-11.77-.87-14.72,3.58a12.33,12.33,0,0,1-1.43,2.1,6.41,6.41,0,0,1-2.51,1.3c-14.44,4.78-30,4.88-45.17,4.93l-17.26.05a13.82,13.82,0,0,1-6-.88c-1.86-.88-3.34-2.9-2.92-4.91a69.54,69.54,0,0,0-30,3.45c5.35,4.34,14.84,2.75,18.15,8.79.77,1.39,1.07,3.06,2.09,4.28C178.22,147.1,180.73,147.46,183,147.67Z" fill="#fff"/></g><g id="change4_2"><path d="M169.56,65.93l-2.17-4.18a10.6,10.6,0,0,1,3.26,1c0-1.52.09-3,.14-4.56q10.54,4.48,21,9.26c0-2,0-4,0-6a3.36,3.36,0,0,0,1.64,2.26,21.11,21.11,0,0,1,1-7.15,7.05,7.05,0,0,1,1.33,3.25l3.5-4,1.35,6.67,1.8-1.67c.82,2.84.84,5.84,1.14,8.78s.93,6,2.74,8.32,5.07,3.76,7.82,2.66c-.31,1.52-2.19,2.21-3.72,2S207.47,81.41,206,81c-3.31-1-6.84.16-10.11,1.29l-10.51,3.63a4.26,4.26,0,0,1,.32-2.31L178.5,84a7,7,0,0,1,2.28-3.58,13.18,13.18,0,0,1-5.51-1.4,40.22,40.22,0,0,1,11.5-6.32c-5.15-2.4-11.1-2-16.76-1.66a3,3,0,0,0,1.69-1.82,13.05,13.05,0,0,1-5-2.37A9.92,9.92,0,0,1,169.56,65.93Z" fill="#7d921c"/></g><g id="change4_3"><path d="M302.39,80.18c4.38.93,8.92,3.15,13.09,1.54a15.18,15.18,0,0,0,3-1.7l6.77-4.55a23.82,23.82,0,0,0-2.08,6.75,4.94,4.94,0,0,1,2.52-.18A1.66,1.66,0,0,1,326.93,84l-2.3.46c0,.57,0,1.15,0,1.72l1.62,1a2.37,2.37,0,0,1-3,3.48c0,1.36,0,2.71,0,4.07l-1.3,0a14.19,14.19,0,0,0-10.84-7c-1.72-.16-3.63-.06-5-1.14a9.65,9.65,0,0,1-1.9,6.54l-2-3a6.33,6.33,0,0,1-6,5.15c.21-2.87.41-5.75.62-8.62-1.53.34-2.71-1.24-4-2.15-2.24-1.6-5.3-1.17-8-.68A22.69,22.69,0,0,1,302.39,80.18Z" fill="#7d921c"/></g><g id="change4_4"><path d="M143.13,118.41a24.24,24.24,0,0,1,.34-4.89,4.35,4.35,0,0,0,3.8,2.64c.95-5.09-4.14-9.21-5.5-14.21a3.65,3.65,0,0,1,.39-3.32,4.92,4.92,0,0,1,2.76-1.22,7.74,7.74,0,0,0,3.91-2,3.71,3.71,0,0,0,.86-4.08l-2.13,0a3.51,3.51,0,0,1-1.49,3.58,7.54,7.54,0,0,1-3.9,1.18c-4.63.32-9.18-1.15-13.6-2.6l-6.5-2.15,1.36,4-3.66,0a1.66,1.66,0,0,0-1.14.28c-.54.48-.21,1.39.3,1.91s1.19.91,1.41,1.6c-.86.66-2.42-.07-3,.82s.7,2,1.8,2.24a26.77,26.77,0,0,0,8.69.73c.94.84.55,2.51-.43,3.29a6.6,6.6,0,0,1-3.58,1.07l-6.61.64a7.83,7.83,0,0,0,5.56,2.09,10.16,10.16,0,0,0-1.18,5.46l3.5,0a8.44,8.44,0,0,0,.74,3.8,2.89,2.89,0,0,0,3.24,1.56c1.5-.51,1.9-2.39,2.23-4a22.83,22.83,0,0,1,4.14-9c.5-.66,1.48-1.32,2-.71a1.51,1.51,0,0,1,.28,1l.42,7.49,2.88-1.47A6.5,6.5,0,0,0,143.13,118.41Z" fill="#7d921c"/></g><g id="change2_4"><path d="M90,115.38A2,2,0,0,1,88.61,113,1.94,1.94,0,0,1,91,111.66l8.6,2.88a2,2,0,0,1,1.35,2.37,2,2,0,0,1-2.37,1.35L90,115.38Zm251.21-4.53,2.14,4.3a2,2,0,0,0,1.16.89,1.92,1.92,0,0,0,1.48-.2,2,2,0,0,0,.89-1.15,2.12,2.12,0,0,0-.2-1.48l-2.15-4.3a1.91,1.91,0,0,0-1.15-.89,1.92,1.92,0,0,0-2.37,1.35,2.07,2.07,0,0,0,.2,1.48Z" fill="#fff"/></g><g id="change4_5"><path d="M216.46,114.66,212.89,112a9.45,9.45,0,0,1,3.17-.52c-.6-1.31-1.19-2.62-1.78-3.93q10.83-.57,21.65-.82l-2.45-5.12a3.2,3.2,0,0,0,2.33,1.24,20.3,20.3,0,0,1-2.13-6.49,6.71,6.71,0,0,1,2.48,2.22l1.31-4.88c1.3,1.7,2.6,3.41,3.91,5.11l.84-2.16c1.87,2.07,3.13,4.61,4.6,7s3.27,4.69,5.78,5.93,5.87,1.1,7.75-1c.36,1.42-.94,2.79-2.34,3.22a31.65,31.65,0,0,1-4.36.52c-3.23.54-5.76,3-8.07,5.29l-7.42,7.44a4,4,0,0,1-.69-2.09l-5.94,3.3a6.75,6.75,0,0,1,.45-4,12.56,12.56,0,0,1-5.26,1.09,38.31,38.31,0,0,1,7.15-10.14c-5.36.1-10.28,2.86-14.93,5.54a2.76,2.76,0,0,0,.68-2.25,12.23,12.23,0,0,1-5.25.07A9.64,9.64,0,0,1,216.46,114.66Zm90-4.49a20.42,20.42,0,0,1-2.2,3.38,3.61,3.61,0,0,0-1.68-3.42c-2.72,3.29-.7,8.29-1.72,12.42a3,3,0,0,1-1.6,2.24,4.07,4.07,0,0,1-2.47-.23,6.5,6.5,0,0,0-3.6-.14,3,3,0,0,0-2.24,2.59l1.51.88a2.87,2.87,0,0,1,2.5-2,6.19,6.19,0,0,1,3.28.7c3.46,1.62,6.15,4.49,8.75,7.3l3.82,4.14.63-3.45,2.61,1.49a1.4,1.4,0,0,0,.93.26c.58-.13.71-.92.55-1.49a3.79,3.79,0,0,1-.37-1.72c.88-.13,1.71,1,2.51.63s.28-1.69-.4-2.33a22,22,0,0,0-6-4c-.34-1,.6-2,1.62-2.2a5.42,5.42,0,0,1,3,.67l5,2.17a6.42,6.42,0,0,0-3.16-3.72,8.46,8.46,0,0,0,3-3.46l-2.51-1.41a6.94,6.94,0,0,0,1-3,2.39,2.39,0,0,0-1.71-2.42c-1.29-.22-2.32,1-3.18,2a18.76,18.76,0,0,1-6.57,4.82c-.62.27-1.59.36-1.76-.3a1.24,1.24,0,0,1,.18-.81l2.69-5.55-2.66-.1A5.34,5.34,0,0,0,306.45,110.17ZM123.32,134.1l12.81-3.22a1.93,1.93,0,1,0-1-3.72l-12.82,3.22a1.93,1.93,0,0,0,1,3.72Zm21.35-61.94L151.23,77a1.94,1.94,0,0,0,1.49.19,1.91,1.91,0,0,0,1.34-2.37,2.27,2.27,0,0,0-.88-1.15l-6.56-4.88a1.92,1.92,0,0,0-1.48-.19A1.91,1.91,0,0,0,143.79,71a2.27,2.27,0,0,0,.88,1.15Zm150-9.67L286.76,66a1.93,1.93,0,0,0-.69,2.64,2,2,0,0,0,2.63.69l7.92-3.52a1.92,1.92,0,0,0,.69-2.63,2,2,0,0,0-2.63-.7ZM277.4,150.34l8.61-3.56a2,2,0,0,0,1.15-.89,1.92,1.92,0,0,0-2.17-2.83l-8.62,3.57a2.14,2.14,0,0,0-1.15.88A2,2,0,0,0,275,149a1.94,1.94,0,0,0,2.37,1.34Zm119-49.39a20.09,20.09,0,0,1-1.28,2.27c-.24.37-.48.72-.74,1.07-.08.11-.36.36,0,0a1.56,1.56,0,0,0-.16.2c-.15.19-.3.37-.46.55a18.81,18.81,0,0,1-1.83,1.85c-.32.29-.66.57-1,.84-.18.15.32-.23,0,0l-.26.2-.59.41a1.93,1.93,0,1,0,1.95,3.32,22.33,22.33,0,0,0,7.68-8.76,1.93,1.93,0,1,0-3.32-2Z" fill="#7d921c"/></g></svg>
